<svg version="1.1" xmlns="http://www.w3.org/2000/svg" style="display: block;" viewBox="0 0 1600 1600" width="400" height="400" preserveAspectRatio="xMidYMid meet">
<defs>
	<linearGradient id="Gradient1" gradientUnits="userSpaceOnUse" x1="403.36" y1="914.455" x2="298.438" y2="783.684">
		<stop class="stop0" offset="0" stop-opacity="1" stop-color="rgb(32,0,0)"/>
		<stop class="stop1" offset="1" stop-opacity="1" stop-color="rgb(63,8,0)"/>
	</linearGradient>
	<linearGradient id="Gradient2" gradientUnits="userSpaceOnUse" x1="1027.93" y1="1304.96" x2="1076.67" y2="1026.49">
		<stop class="stop0" offset="0" stop-opacity="1" stop-color="rgb(0,98,28)"/>
		<stop class="stop1" offset="1" stop-opacity="1" stop-color="rgb(35,169,37)"/>
	</linearGradient>
	<linearGradient id="Gradient3" gradientUnits="userSpaceOnUse" x1="1069.23" y1="893.437" x2="906.581" y2="657.784">
		<stop class="stop0" offset="0" stop-opacity="1" stop-color="rgb(4,0,0)"/>
		<stop class="stop1" offset="1" stop-opacity="1" stop-color="rgb(78,3,0)"/>
	</linearGradient>
	<linearGradient id="Gradient4" gradientUnits="userSpaceOnUse" x1="721.757" y1="708.658" x2="1027.87" y2="536.434">
		<stop class="stop0" offset="0" stop-opacity="1" stop-color="rgb(157,87,0)"/>
		<stop class="stop1" offset="1" stop-opacity="1" stop-color="rgb(189,127,14)"/>
	</linearGradient>
	<linearGradient id="Gradient5" gradientUnits="userSpaceOnUse" x1="1150.79" y1="630.054" x2="1125.23" y2="452.146">
		<stop class="stop0" offset="0" stop-opacity="1" stop-color="rgb(28,2,0)"/>
		<stop class="stop1" offset="1" stop-opacity="1" stop-color="rgb(46,0,0)"/>
	</linearGradient>
	<linearGradient id="Gradient6" gradientUnits="userSpaceOnUse" x1="1034.88" y1="730.738" x2="1115.09" y2="617.821">
		<stop class="stop0" offset="0" stop-opacity="1" stop-color="rgb(140,64,3)"/>
		<stop class="stop1" offset="1" stop-opacity="1" stop-color="rgb(165,97,3)"/>
	</linearGradient>
	<linearGradient id="Gradient7" gradientUnits="userSpaceOnUse" x1="704.551" y1="895.097" x2="779.758" y2="214.574">
		<stop class="stop0" offset="0" stop-opacity="1" stop-color="rgb(143,74,3)"/>
		<stop class="stop1" offset="1" stop-opacity="1" stop-color="rgb(168,99,7)"/>
	</linearGradient>
	<linearGradient id="Gradient8" gradientUnits="userSpaceOnUse" x1="418.584" y1="730.051" x2="988.98" y2="721.363">
		<stop class="stop0" offset="0" stop-opacity="1" stop-color="rgb(163,95,0)"/>
		<stop class="stop1" offset="1" stop-opacity="1" stop-color="rgb(216,162,27)"/>
	</linearGradient>
	<linearGradient id="Gradient9" gradientUnits="userSpaceOnUse" x1="806.646" y1="1600.24" x2="792.328" y2="-1.19612">
		<stop class="stop0" offset="0" stop-opacity="1" stop-color="rgb(212,171,83)"/>
		<stop class="stop1" offset="1" stop-opacity="1" stop-color="rgb(250,234,167)"/>
	</linearGradient>
</defs>
<path transform="translate(0,0)" fill="url(#Gradient9)" d="M 326.207 0 L 1273.6 0 C 1277.99 2.10347 1284.8 2.71263 1289.78 3.25359 C 1310.97 5.5537 1329.98 10.1198 1350.18 16.7415 C 1452.82 49.3934 1535.41 126.331 1575.25 226.397 C 1586.56 254.123 1593.37 281.073 1597.16 310.628 C 1597.75 315.246 1597.94 321.315 1600 325.285 L 1600 1274.77 C 1597.15 1282.06 1596.43 1295.17 1595.03 1303.34 C 1592.38 1318.85 1588.7 1334.16 1584.03 1349.18 C 1553.85 1443.46 1486.34 1521.24 1397.25 1564.38 C 1375.24 1575.13 1352.17 1583.55 1328.42 1589.53 C 1319.01 1591.87 1282.47 1597.48 1277.73 1600 L 323.247 1600 C 319.425 1598.08 298.488 1594.8 293.037 1593.82 C 163.635 1570.68 54.042 1472.84 15.8004 1347.19 C 13.48 1339.57 11.1728 1329.17 8.69536 1321.49 C 4.38151 1308.1 4.86711 1286.57 0 1274.44 L 0 326.539 C 1.97571 321.99 2.22515 316.502 2.86091 311.56 C 6.70882 281.655 14.1131 252.944 25.5222 225.058 C 56.0642 149.037 111.597 85.6911 182.968 45.463 C 217.032 26.109 251.175 13.8527 289.449 6.56141 C 296.519 5.2146 321.732 2.18676 326.207 0 z"/>
<path transform="translate(0,0)" fill="url(#Gradient8)" d="M 455.727 722.592 C 481.061 713.38 512.135 698.66 537.56 687.842 L 731.247 605.679 C 759.356 593.663 794.616 576.68 822.901 565.976 C 859.747 620.688 898.058 673.922 934.108 729.465 C 925.738 738.085 917.583 746.91 909.651 755.934 C 905.997 760.119 887.381 783.317 885.011 784.85 L 882.306 785.814 L 882.607 787.237 C 903.104 800.376 928.334 813.153 949.579 825.854 C 959.088 831.539 985.319 847.766 994.215 851.163 C 993.797 856.981 993.907 874.805 990.378 878.019 C 974.419 871.497 946.905 883.427 938.039 876.884 C 931.496 884.654 899.722 935.337 895.568 936.776 L 890.134 922.621 C 895.983 910.564 902.297 902.072 908.527 890.988 C 859.977 900.615 812.432 915.773 764.158 926.112 C 758.335 927.36 714.331 920.007 705.297 918.788 L 545.215 897.182 C 522.429 943.308 471.076 972.498 426.627 992.918 C 418.884 996.475 405.951 1001.63 399.651 1007.8 C 386.048 1027.89 371.976 1069.61 366.468 1092.18 C 358.754 1090.65 323.251 1090.92 314.322 1091.42 C 318.476 1080.79 322.884 1071.23 326.51 1060.26 C 327.175 1030.97 333.697 1001.35 335.243 972.694 C 348.385 963.186 361.941 949.358 374.553 938.763 C 385.199 937.497 424.962 888.815 434.159 885.215 C 433.941 878.999 428.756 871.232 426.528 865.178 C 416.947 839.145 416.371 815.754 423.254 789.451 C 425.656 774.202 438.252 752.247 446.251 738.814 C 448.302 735.371 455.368 725.211 455.727 722.592 z"/>
<path transform="translate(0,0)" fill="rgb(50,4,1)" d="M 765.412 733.802 C 767.406 746.706 771.547 760.412 774.821 773.18 C 778.951 789.737 782.971 806.321 786.879 822.932 C 788.731 830.727 791.929 842.826 792.867 850.494 C 819.873 853.235 853.367 861.202 880.586 866.207 C 897.58 869.332 922.241 872.889 938.039 876.884 C 931.496 884.654 899.722 935.337 895.568 936.776 L 890.134 922.621 C 895.983 910.564 902.297 902.072 908.527 890.988 C 859.977 900.615 812.432 915.773 764.158 926.112 C 758.335 927.36 714.331 920.007 705.297 918.788 L 545.215 897.182 C 522.429 943.308 471.076 972.498 426.627 992.918 C 418.884 996.475 405.951 1001.63 399.651 1007.8 C 386.048 1027.89 371.976 1069.61 366.468 1092.18 C 358.754 1090.65 323.251 1090.92 314.322 1091.42 C 318.476 1080.79 322.884 1071.23 326.51 1060.26 C 327.175 1030.97 333.697 1001.35 335.243 972.694 C 348.385 963.186 361.941 949.358 374.553 938.763 C 385.199 937.497 424.962 888.815 434.159 885.215 C 444.941 894.953 514.841 878.48 529.426 879.256 L 532.785 875.075 C 544.591 859.899 573.877 770.364 581.189 747.827 C 580.877 757.874 581.038 767.819 581.135 777.866 C 582.365 792.136 582.015 808.789 581.694 823.135 C 606.263 816.007 648.976 811.135 675.874 805.894 C 689.442 803.25 742.01 793.732 753.639 793.55 C 757.851 773.692 761.776 753.774 765.412 733.802 z"/>
<path transform="translate(0,0)" fill="rgb(138,67,3)" d="M 434.159 885.215 C 444.941 894.953 514.841 878.48 529.426 879.256 C 502.913 926.164 410.911 967.422 364.053 994.232 C 357.152 1007.96 335.439 1051.09 326.51 1060.26 C 327.175 1030.97 333.697 1001.35 335.243 972.694 C 348.385 963.186 361.941 949.358 374.553 938.763 C 385.199 937.497 424.962 888.815 434.159 885.215 z"/>
<path transform="translate(0,0)" fill="rgb(138,67,3)" d="M 581.135 777.866 C 582.365 792.136 582.015 808.789 581.694 823.135 C 606.263 816.007 648.976 811.135 675.874 805.894 C 689.442 803.25 742.01 793.732 753.639 793.55 C 751.031 813.424 745.283 835.68 742.375 856.471 C 731.718 853.777 708.267 851.214 696.58 849.655 C 670.384 846.171 644.216 842.476 618.079 838.569 C 609.135 837.211 588.841 834.568 581.344 831.725 C 580.062 827.457 580.916 784.976 581.135 777.866 z"/>
<path transform="translate(0,0)" fill="rgb(165,97,3)" d="M 423.254 789.451 C 425.193 796.531 419.643 811.26 420.437 820.513 L 421.98 820.431 L 420.727 822.392 L 421.337 819.104 C 422.444 821.724 422.005 822.008 423.96 823.04 C 424.487 827.291 424.522 830.995 426.683 834.595 L 428.583 835.794 C 431.611 834.1 431.865 832.469 432.94 828.632 C 433.438 826.821 433.916 825.005 434.372 823.184 C 436.218 824.951 435.118 824.48 437.472 825.058 L 438.384 829.309 L 440.453 827.581 L 443.029 828.094 C 445.253 826.173 445.285 825.937 446.863 823.582 C 454.379 823.631 460.362 846.654 468.636 849.193 C 470.903 849.888 477.875 854.847 479.421 857.054 C 481.401 869.335 482.958 868.487 495.22 871.606 C 498.63 872.474 496.552 875.236 498.705 876.523 C 507.382 881.712 523.73 878.494 532.785 875.075 L 529.426 879.256 C 514.841 878.48 444.941 894.953 434.159 885.215 C 433.941 878.999 428.756 871.232 426.528 865.178 C 416.947 839.145 416.371 815.754 423.254 789.451 z"/>
<path transform="translate(0,0)" fill="rgb(138,67,3)" d="M 1289.12 587.471 C 1298.98 570.682 1305.24 543.096 1307.03 523.929 C 1323.94 556.645 1339.04 588.505 1350.91 623.517 C 1389.83 739.418 1391.14 864.654 1354.65 981.344 C 1307.78 1131.07 1203.13 1255.91 1063.89 1328.21 C 925.193 1399.62 763.975 1413.63 615.036 1367.22 C 520.979 1337.09 432.114 1284.22 364.854 1211.4 C 370.687 1195.17 376.098 1180.03 380.493 1163.27 C 403.99 1191.45 423.692 1208.14 450.148 1232.1 C 453.259 1235.75 479.925 1255.3 484.097 1257.05 C 490.63 1262.26 509.678 1273.19 517.88 1278.17 C 538.815 1260.84 560.751 1245.01 581.899 1227.98 C 585.438 1225.13 588.891 1222.22 592.607 1219.61 C 593.082 1250.81 592.917 1282.03 592.112 1313.23 C 596.506 1315.52 625.309 1325.72 629.898 1326.28 C 639.065 1331.75 706.921 1346.4 719.954 1347.03 C 730.08 1348.21 746.388 1350.37 756.539 1350.14 C 770.672 1352.34 835.371 1352.04 849.777 1348.95 C 856.535 1348.04 882.252 1345.5 885.413 1341.99 L 887.424 1342.92 C 903.786 1342.61 955.351 1328.4 970.967 1321.61 C 977.401 1319.53 1005.18 1310.03 1008.17 1306.07 L 1009.96 1306.51 C 1026.37 1302.39 1080.26 1270.27 1094.98 1260.15 C 1100.7 1256.65 1128.83 1236.82 1131.83 1233.17 C 1146.2 1225.09 1199.33 1172.21 1209.54 1156.91 C 1215.21 1151.85 1221.46 1143.73 1225.64 1137.35 C 1238.3 1124.19 1257.17 1093.69 1266.23 1077.75 C 1318.2 986.329 1340.17 896.577 1338.12 792.157 C 1336.83 737.185 1326.91 682.758 1308.71 630.87 C 1304.04 617.357 1297.29 599.157 1289.12 587.471 z"/>
<path transform="translate(0,0)" fill="rgb(5,113,29)" d="M 517.88 1278.17 C 538.815 1260.84 560.751 1245.01 581.899 1227.98 C 585.438 1225.13 588.891 1222.22 592.607 1219.61 C 593.082 1250.81 592.917 1282.03 592.112 1313.23 C 580.273 1310.92 528.027 1285.33 517.88 1278.17 z"/>
<path transform="translate(0,0)" fill="url(#Gradient7)" d="M 770.658 218.449 C 790.724 217.737 810.814 218.062 830.846 219.426 C 979.939 230.826 1108.71 288.997 1215.17 394.654 C 1238.2 417.513 1251.53 437.926 1271.55 461.294 C 1264.91 468.707 1249.65 490.734 1245.54 499.628 C 1232.3 476.79 1211.35 453.927 1193.31 434.742 C 1110 345.27 999.11 286.296 878.35 267.242 C 733.223 244.315 584.948 280.277 466.449 367.143 C 324.401 472.214 238.038 639.903 245.907 817.76 C 231.614 826.383 217.436 835.197 203.378 844.199 L 203.243 840.953 C 202.266 816.824 201.81 791.97 203.395 767.864 C 211.514 634.174 265.29 507.325 355.728 408.533 C 462.994 292.151 612.471 223.674 770.658 218.449 z"/>
<path transform="translate(0,0)" fill="rgb(5,113,29)" d="M 1110.28 848.957 C 1126.85 844.029 1147.13 841.237 1164.33 837.695 C 1184.98 833.442 1206.32 827.599 1227.02 824.448 C 1227.46 868.237 1227.37 912.03 1226.74 955.816 C 1212.86 944.007 1193.79 920.963 1180.17 906.794 L 1011.23 1042.61 C 962.807 1082.03 911.094 1125.88 862.034 1163.92 C 853.45 1154.54 839.464 1143.28 829.549 1134.44 C 801.009 1108.99 769.91 1084.99 741.618 1059.35 C 725.291 1072.36 706.969 1085.44 690.227 1098.32 L 556.391 1201.31 C 543.241 1211.42 530.5 1221.43 517.183 1231.36 C 507.312 1238.71 492.841 1248.82 484.097 1257.05 C 479.925 1255.3 453.259 1235.75 450.148 1232.1 C 460.495 1222.51 476.091 1211 487.486 1202.19 C 510.305 1184.53 533.223 1167 556.24 1149.6 L 741.72 1005.29 C 770.864 1031.95 802.972 1056.93 832.457 1083.25 C 842.025 1091.79 854.549 1101.57 862.971 1110.57 C 911.003 1069.98 959.597 1030.06 1008.74 990.816 C 1040.07 966.18 1071.08 941.152 1101.78 915.739 C 1116.88 903.464 1134.04 890.21 1148.61 877.538 C 1137.84 869.379 1120.97 855.805 1110.28 848.957 z"/>
<path transform="translate(0,0)" fill="url(#Gradient6)" d="M 1026.14 526.964 C 1064.46 499.765 1099.25 514.627 1136.79 484.234 C 1152.65 471.394 1161.52 459.819 1170.72 441.572 C 1170.94 446.15 1171.16 450.732 1171.59 455.296 C 1175.27 494.298 1156.9 530.618 1125.13 552.737 C 1159.77 566.232 1184.29 577.102 1222.78 561.535 C 1239.5 554.771 1247.12 545.962 1259.39 533.728 C 1264.58 527.026 1269.14 520.672 1274.01 513.761 C 1273.21 518.831 1271.17 533.777 1270 538.191 C 1261.13 594.084 1223.5 623.943 1168.75 629.617 L 1167.53 630.992 C 1168.43 639.12 1169.68 647.026 1170.92 655.099 C 1166.29 661.236 1161.22 666.35 1155.93 671.9 C 1157.64 698.093 1155.31 738.513 1159.44 761.211 C 1150.46 759.098 1132.34 754.396 1123.93 754.021 C 1122.07 755.071 1120.5 756.582 1119.39 758.409 C 1116.11 763.803 1118.58 771.764 1119.82 777.651 C 1112.7 778.482 1106.19 779.537 1099.14 780.707 C 1096.25 773.268 1089.58 760.453 1085.93 752.451 C 1066.19 737.272 1020.19 719.279 1013.86 693.952 C 1010.63 680.978 1010.14 661.904 1006.42 649.335 L 1004.51 648.695 C 1004.08 645.988 1004.09 641.394 1004 638.501 C 1001.68 633.714 999.715 634.684 995.558 630.833 L 996.011 628.813 L 998.585 627.388 C 1010.64 630.762 1023.77 626.268 1035.52 622.886 C 1045.73 619.846 1051.98 619.389 1051.46 607.401 C 1053.52 605.835 1061.22 605.827 1065.11 605.22 C 1042.7 605.617 1031.1 600.601 1016.8 583.037 C 1005.31 559.509 1007.97 545.787 1026.14 526.964 z"/>
<path transform="translate(0,0)" fill="url(#Gradient5)" d="M 1026.14 526.964 C 1064.46 499.765 1099.25 514.627 1136.79 484.234 C 1152.65 471.394 1161.52 459.819 1170.72 441.572 C 1170.94 446.15 1171.16 450.732 1171.59 455.296 C 1175.27 494.298 1156.9 530.618 1125.13 552.737 C 1159.77 566.232 1184.29 577.102 1222.78 561.535 C 1239.5 554.771 1247.12 545.962 1259.39 533.728 C 1264.58 527.026 1269.14 520.672 1274.01 513.761 C 1273.21 518.831 1271.17 533.777 1270 538.191 C 1261.13 594.084 1223.5 623.943 1168.75 629.617 L 1166.64 628.11 C 1165.52 624.576 1157.8 590.007 1157.36 585.955 L 1158.63 585.417 L 1159.73 583.619 C 1146.65 578.858 1110.04 562.781 1099.02 563.929 L 1097.36 564.986 C 1096.4 569.727 1098.35 582.107 1098.97 587.563 C 1094.86 591.77 1093.95 592.723 1088.96 595.82 C 1080.13 600.667 1074.93 602.868 1065.11 605.22 C 1042.7 605.617 1031.1 600.601 1016.8 583.037 C 1005.31 559.509 1007.97 545.787 1026.14 526.964 z"/>
<path transform="translate(0,0)" fill="rgb(253,250,230)" d="M 1159.73 583.619 C 1197.84 586.836 1218.69 583.821 1250.08 559.998 C 1227.67 597.378 1210.24 608.445 1165.48 608.811 C 1163.64 601.31 1161.78 592.343 1158.63 585.417 L 1159.73 583.619 z"/>
<path transform="translate(0,0)" fill="rgb(0,0,0)" d="M 1274.01 513.761 C 1273.21 518.831 1271.17 533.777 1270 538.191 C 1266.18 536.726 1264.02 535.384 1259.39 533.728 C 1264.58 527.026 1269.14 520.672 1274.01 513.761 z"/>
<path transform="translate(0,0)" fill="rgb(253,250,230)" d="M 1154.84 486.977 L 1155.35 487.911 C 1155.01 489.977 1155.03 490.016 1154.17 491.952 C 1135.99 532.882 1106.5 548.447 1066.58 562.602 C 1076.83 565.008 1083.48 566.079 1093.93 567.41 C 1084.53 584.405 1074.93 588.61 1056.23 586.122 C 1028.36 578.474 1021.54 550.648 1048.85 536.225 C 1070.14 524.978 1094.84 522.927 1116.93 513.726 C 1131.55 507.639 1143.68 497.94 1154.84 486.977 z"/>
<path transform="translate(0,0)" fill="rgb(217,165,27)" d="M 1098.97 587.563 C 1098.35 582.107 1096.4 569.727 1097.36 564.986 L 1099.02 563.929 C 1110.04 562.781 1146.65 578.858 1159.73 583.619 L 1158.63 585.417 L 1157.36 585.955 C 1157.8 590.007 1165.52 624.576 1166.64 628.11 L 1168.75 629.617 L 1167.53 630.992 C 1168.43 639.12 1169.68 647.026 1170.92 655.099 C 1166.29 661.236 1161.22 666.35 1155.93 671.9 C 1157.64 698.093 1155.31 738.513 1159.44 761.211 C 1150.46 759.098 1132.34 754.396 1123.93 754.021 C 1121.89 750.582 1111.53 674.041 1107.1 660.779 C 1110.32 656.841 1116.21 652.871 1120.39 649.963 C 1112.04 643.3 1105.34 639.5 1096.21 634.301 L 1098.73 633.268 C 1101.29 626.59 1094.75 601.597 1088.96 595.82 C 1093.95 592.723 1094.86 591.77 1098.97 587.563 z"/>
<path transform="translate(0,0)" fill="rgb(0,0,0)" d="M 1071.34 622.482 C 1079.45 625.773 1087.99 630.607 1096.21 634.301 C 1105.34 639.5 1112.04 643.3 1120.39 649.963 C 1116.21 652.871 1110.32 656.841 1107.1 660.779 C 1101.3 663.151 1100.13 662.852 1093.98 663.362 C 1085 655.266 1085.35 648.686 1078.61 639.5 C 1076.89 638.805 1075.43 638.217 1074.23 637.734 C 1074.34 637.916 1071.99 624.923 1071.34 622.482 z"/>
<path transform="translate(0,0)" fill="rgb(253,250,230)" d="M 1074.23 637.734 C 1075.43 638.217 1076.89 638.805 1078.61 639.5 C 1085.35 648.686 1085 655.266 1093.98 663.362 C 1092.5 664.02 1089.76 664.913 1088.14 665.496 C 1078.73 664.022 1074.16 650.339 1072.15 642.222 C 1071.63 640.1 1073.02 639.17 1074.23 637.734 z"/>
<path transform="translate(0,0)" fill="url(#Gradient4)" d="M 654.437 613.723 C 681.338 589.904 833.037 474.038 857.687 472.588 C 876.207 471.499 1012.77 515.914 1026.14 526.964 C 1007.97 545.787 1005.31 559.509 1016.8 583.037 C 1031.1 600.601 1042.7 605.617 1065.11 605.22 C 1061.22 605.827 1053.52 605.835 1051.46 607.401 C 1051.98 619.389 1045.73 619.846 1035.52 622.886 C 1023.77 626.268 1010.64 630.762 998.585 627.388 L 996.011 628.813 L 995.558 630.833 C 999.715 634.684 1001.68 633.714 1004 638.501 C 1004.09 641.394 1004.08 645.988 1004.51 648.695 C 1003.36 653.521 1001.13 658.6 999.672 663.426 C 992.302 687.853 982.877 712.713 976.707 737.423 C 975.851 734.925 974.889 732.466 973.824 730.05 C 968.332 717.899 930.85 639.174 923.506 636.408 C 920.421 632.54 913.896 620.183 911.089 615.3 C 892.587 583.117 872.074 551.986 853.233 520.07 C 835.924 530.618 800.012 545.282 780.649 554.745 C 738.799 575.197 697.176 595.144 654.437 613.723 z"/>
<path transform="translate(0,0)" fill="rgb(90,19,1)" d="M 959.594 578.324 L 958.761 576.468 C 965.081 573.765 1007.88 583.378 1016.8 583.037 C 1031.1 600.601 1042.7 605.617 1065.11 605.22 C 1061.22 605.827 1053.52 605.835 1051.46 607.401 C 1051.98 619.389 1045.73 619.846 1035.52 622.886 C 1023.77 626.268 1010.64 630.762 998.585 627.388 C 977.448 618.415 966.882 599.017 959.594 578.324 z"/>
<path transform="translate(0,0)" fill="rgb(0,0,0)" d="M 959.594 578.324 C 967.982 580.118 981.31 596.601 992.604 603.556 C 1003.29 610.138 1031.16 619.49 1035.52 622.886 C 1023.77 626.268 1010.64 630.762 998.585 627.388 C 977.448 618.415 966.882 599.017 959.594 578.324 z"/>
<path transform="translate(0,0)" fill="url(#Gradient3)" d="M 923.506 636.408 C 930.85 639.174 968.332 717.899 973.824 730.05 C 974.889 732.466 975.851 734.925 976.707 737.423 C 982.877 712.713 992.302 687.853 999.672 663.426 C 1001.13 658.6 1003.36 653.521 1004.51 648.695 L 1006.42 649.335 C 1010.14 661.904 1010.63 680.978 1013.86 693.952 C 1020.19 719.279 1066.19 737.272 1085.93 752.451 C 1089.58 760.453 1096.25 773.268 1099.14 780.707 C 1106.19 779.537 1112.7 778.482 1119.82 777.651 C 1118.58 771.764 1116.11 763.803 1119.39 758.409 C 1120.5 756.582 1122.07 755.071 1123.93 754.021 C 1132.34 754.396 1150.46 759.098 1159.44 761.211 L 1161.24 762.948 C 1159.96 768.252 1147.06 785.574 1143.61 793.795 C 1125.48 794.059 1104.54 795.497 1086.74 798.9 C 1065.16 768.489 1067.3 774.746 1037.32 756.606 C 1026.35 773.003 1008.62 796.99 996.389 813.37 L 999.509 813.403 C 1000.53 812.486 1000.99 811.612 1002.08 812.095 C 1012.83 816.863 1033.95 834.09 1041.99 841.718 C 1045.1 844.667 1049.88 865.407 1051.09 869.922 C 1047.18 875.938 1043.19 879.748 1038.89 885.176 C 1017.51 912.154 988.496 939.27 968.499 966.849 C 959.328 964.793 944.1 961.065 935.216 960.37 L 929.373 968.44 L 927.596 966.562 C 925.468 970.101 923.781 973.87 920.384 975.908 C 917.287 975.923 918.678 976.327 916.068 974.639 C 913.1 963.459 901.775 946.994 894.343 937.856 L 895.568 936.776 C 899.722 935.337 931.496 884.654 938.039 876.884 C 946.905 883.427 974.419 871.497 990.378 878.019 C 993.907 874.805 993.797 856.981 994.215 851.163 C 985.319 847.766 959.088 831.539 949.579 825.854 C 928.334 813.153 903.104 800.376 882.607 787.237 L 882.306 785.814 L 885.011 784.85 C 887.381 783.317 905.997 760.119 909.651 755.934 C 917.583 746.91 925.738 738.085 934.108 729.465 C 937.523 734.382 941.817 741.079 945.987 745.136 C 945.104 717.527 933.732 662.218 923.506 636.408 z"/>
<path transform="translate(0,0)" fill="rgb(165,97,3)" d="M 938.039 876.884 C 946.905 883.427 974.419 871.497 990.378 878.019 C 983.342 885.608 964.806 912.854 958.358 922.538 C 949.055 936.509 936.343 953.005 927.596 966.562 C 925.468 970.101 923.781 973.87 920.384 975.908 C 917.287 975.923 918.678 976.327 916.068 974.639 C 913.1 963.459 901.775 946.994 894.343 937.856 L 895.568 936.776 C 899.722 935.337 931.496 884.654 938.039 876.884 z"/>
<path transform="translate(0,0)" fill="rgb(165,97,3)" d="M 934.108 729.465 C 937.523 734.382 941.817 741.079 945.987 745.136 C 945.28 763.852 939.567 777.315 932.324 794.277 C 919.496 789.723 899.258 787.906 885.011 784.85 C 887.381 783.317 905.997 760.119 909.651 755.934 C 917.583 746.91 925.738 738.085 934.108 729.465 z"/>
<path transform="translate(0,0)" fill="rgb(90,19,1)" d="M 999.509 813.403 C 996.908 817.737 992.364 823.85 988.221 826.734 L 986.812 826.602 L 987.428 827.082 L 988.594 826.68 L 987.639 824.222 C 989.347 821.691 994.307 815.911 996.389 813.37 L 999.509 813.403 z"/>
<path transform="translate(0,0)" fill="rgb(24,152,37)" d="M 1190.12 933.969 C 1203.7 945.431 1213.17 954.646 1225.3 967.649 L 1225.64 1137.35 C 1221.46 1143.73 1215.21 1151.85 1209.54 1156.91 C 1199.33 1172.21 1146.2 1225.09 1131.83 1233.17 L 1131.82 1219.03 C 1130.26 1207.06 1131 1168.57 1130.98 1155.19 L 1131.22 1044.74 C 1131.24 1024.97 1131.67 1003.17 1130.75 983.549 C 1148.84 970.788 1173.37 948.594 1190.12 933.969 z"/>
<path transform="translate(0,0)" fill="rgb(5,113,29)" d="M 1131.82 1219.03 C 1132.61 1212.35 1132.04 1200.08 1132.12 1193 C 1132.34 1172.72 1131.12 1151.72 1132.72 1131.55 C 1133.15 1141.84 1132.22 1213.63 1134.1 1216.58 C 1136.59 1218.28 1138.78 1219.27 1141.88 1218.91 C 1153.38 1217.61 1200.33 1167.06 1208.17 1156.19 C 1208.4 1155.87 1208.62 1155.55 1208.84 1155.22 L 1209.54 1156.91 C 1199.33 1172.21 1146.2 1225.09 1131.83 1233.17 L 1131.82 1219.03 z"/>
<path transform="translate(0,0)" fill="url(#Gradient2)" d="M 1007.96 1092.68 C 1017.39 1082.87 1033.77 1070.59 1044.71 1061.9 C 1061.63 1048.51 1078.4 1034.93 1095.02 1021.18 C 1095.32 1100.56 1094.07 1180.84 1094.98 1260.15 C 1080.26 1270.27 1026.37 1302.39 1009.96 1306.51 L 1008.17 1306.07 C 1006.17 1251.95 1009.16 1196.44 1007.71 1142.14 C 1007.28 1126.33 1006.91 1108.25 1007.96 1092.68 z"/>
<path transform="translate(0,0)" fill="rgb(5,113,29)" d="M 755.991 1116.47 C 786.97 1142.28 819.179 1171.24 849.789 1197.86 L 849.777 1348.95 C 835.371 1352.04 770.672 1352.34 756.539 1350.14 C 758.352 1296 755.769 1240.43 757.044 1186.16 C 757.547 1164.72 757.966 1137.64 755.991 1116.47 z"/>
<path transform="translate(0,0)" fill="rgb(5,113,29)" d="M 629.96 1190.8 C 658.671 1168.38 691.962 1143.48 719.657 1120.37 L 719.954 1347.03 C 706.921 1346.4 639.065 1331.75 629.898 1326.28 L 629.96 1190.8 z"/>
<path transform="translate(0,0)" fill="url(#Gradient1)" d="M 204.37 872.952 C 211.955 882.964 221.688 891.149 232.853 896.904 C 244.296 902.948 263.037 908.537 275.543 903.455 C 307.736 890.952 287.633 860.502 285.539 837.341 C 278.881 763.698 351.611 747.534 408.037 737.057 C 421.344 734.586 442.113 726.949 455.727 722.592 C 455.368 725.211 448.302 735.371 446.251 738.814 C 438.252 752.247 425.656 774.202 423.254 789.451 C 416.371 815.754 416.947 839.145 426.528 865.178 C 428.756 871.232 433.941 878.999 434.159 885.215 C 424.962 888.815 385.199 937.497 374.553 938.763 C 377.209 929.827 378.261 909.391 379.141 899.383 C 384.311 840.623 381.02 815.678 414.185 764.345 C 381.647 772.453 337.201 773.72 315.877 803.275 C 302.201 823.024 307.117 848.058 312.446 871.557 C 322.952 917.888 270.293 971.444 226.283 943.879 C 209.566 933.409 207.159 893.279 204.37 872.952 z"/>
<path transform="translate(0,0)" fill="rgb(5,113,29)" d="M 885.847 1193.15 C 893.066 1185.23 910.884 1171.05 919.854 1163.78 C 936.871 1149.99 954.487 1135.23 971.821 1122.01 C 970.06 1141.67 971.066 1175.69 971.118 1196.31 L 970.967 1321.61 C 955.351 1328.4 903.786 1342.61 887.424 1342.92 L 885.413 1341.99 C 884.96 1292.46 886.413 1242.88 885.847 1193.15 z"/>
<path transform="translate(0,0)" fill="rgb(50,4,1)" d="M 554.932 919.833 L 611.38 927.934 C 619.067 928.978 633.29 931.148 640.477 931.309 C 631.253 943.303 623.092 956.958 611.914 967.229 C 591.62 985.877 523.016 1014.65 495.214 1027.98 C 487.574 1050.81 481.618 1070.34 475.784 1093.87 C 472.543 1105.71 470.492 1119.34 467.362 1131.76 C 447.593 1131.99 422.859 1132.55 403.408 1131.26 L 423.653 1090.89 C 435.501 1064.55 448.164 1031.57 452.29 1002.97 C 486.517 988.643 538.159 954.491 554.932 919.833 z"/>
<path transform="translate(0,0)" fill="rgb(0,0,0)" d="M 423.653 1090.89 C 432.74 1097.77 464.116 1095.43 475.784 1093.87 C 472.543 1105.71 470.492 1119.34 467.362 1131.76 C 447.593 1131.99 422.859 1132.55 403.408 1131.26 L 423.653 1090.89 z"/>
<path transform="translate(0,0)" fill="rgb(0,0,0)" d="M 840.437 929.394 C 850.235 932.178 865.53 933.757 875.808 935.002 C 882.236 935.791 887.961 936.726 894.343 937.856 C 901.775 946.994 913.1 963.459 916.068 974.639 C 918.678 976.327 917.287 975.923 920.384 975.908 C 923.781 973.87 925.468 970.101 927.596 966.562 L 929.373 968.44 C 926.262 974.208 924.365 976.202 920.026 981.193 C 901.529 985.71 882.773 990.531 864.258 994.838 C 844.746 999.695 824.528 1005.07 804.828 1008.8 C 810.048 997.853 815.483 983.626 820.414 972.218 C 826.779 957.801 833.455 943.523 840.437 929.394 z"/>
<path transform="translate(0,0)" fill="rgb(138,67,3)" d="M 875.808 935.002 C 882.236 935.791 887.961 936.726 894.343 937.856 C 901.775 946.994 913.1 963.459 916.068 974.639 C 918.678 976.327 917.287 975.923 920.384 975.908 C 923.781 973.87 925.468 970.101 927.596 966.562 L 929.373 968.44 C 926.262 974.208 924.365 976.202 920.026 981.193 C 901.529 985.71 882.773 990.531 864.258 994.838 C 860.443 985.569 861.319 981.725 863.175 972.138 C 867.189 959.693 871.401 947.313 875.808 935.002 z"/>
<path transform="translate(0,0)" fill="rgb(50,4,1)" d="M 916.068 974.639 C 918.678 976.327 917.287 975.923 920.384 975.908 C 923.781 973.87 925.468 970.101 927.596 966.562 L 929.373 968.44 C 926.262 974.208 924.365 976.202 920.026 981.193 C 901.529 985.71 882.773 990.531 864.258 994.838 C 860.443 985.569 861.319 981.725 863.175 972.138 C 867.089 974.843 907.101 972.979 916.068 974.639 z"/>
<path transform="translate(0,0)" fill="rgb(138,67,3)" d="M 226.706 973.305 C 241.63 977.945 256.124 978.662 271.494 976.599 C 280.967 1002.45 287.381 1017.45 298.57 1042.18 C 294.011 1054.33 289.242 1064.79 283.897 1076.58 C 281.428 1082.3 279.849 1086.77 277.873 1092.7 C 255.435 1052.45 240.598 1017.03 226.706 973.305 z"/>
<path transform="translate(0,0)" fill="rgb(138,67,3)" d="M 299.44 1127.85 L 314.322 1091.42 C 323.251 1090.92 358.754 1090.65 366.468 1092.18 C 362.634 1116.62 348.631 1162.22 341.102 1185.76 C 326.856 1165.81 312.173 1149.66 299.44 1127.85 z"/>
</svg>